<?xml version="1.0" encoding="utf-8"?>
<!-- Generator: Adobe Illustrator 22.1.0, SVG Export Plug-In . SVG Version: 6.00 Build 0)  -->
<svg version="1.1" id="Ebene_1" xmlns="http://www.w3.org/2000/svg" xmlns:xlink="http://www.w3.org/1999/xlink" x="0px" y="0px"
	 viewBox="0 0 16 16" style="enable-background:new 0 0 16 16;" xml:space="preserve">
<path d="M14.6,3.7L8.4,0.1C8.2,0,7.8,0,7.6,0.1L1.4,3.7C1.1,3.8,0.9,4.2,0.9,4.4v7.1c0,0.3,0.2,0.6,0.4,0.8l6.2,3.6
	c0.2,0.1,0.6,0.1,0.9,0l6.2-3.6c0.2-0.1,0.4-0.5,0.4-0.8V4.4C15.1,4.2,14.9,3.8,14.6,3.7z M10.6,10.9c-0.6,0-1.1-0.2-1.5-0.6
	L6.5,7.5C6.3,7.2,6,7.1,5.7,7.1H4.4v1.4c0,0.8,0.6,1.4,1.3,1.4c0.4,0,0.7-0.2,0.9-0.4L7,9.1l0.6,0.7c-0.3,0.3-0.4,0.4-0.4,0.4l0,0
	c-0.4,0.4-0.9,0.7-1.5,0.7c-1.2,0-2.2-1.1-2.2-2.4V7.1c-0.7,0-1-1-1-1h1V4.5l0.9-0.3v2h1.3c0.6,0,1.1,0.2,1.5,0.6l2.6,2.8
	C10,9.8,10.3,10,10.6,10c0.7,0,1.3-0.6,1.3-1.4c0-0.8-0.6-1.4-1.3-1.4c-0.3,0-0.6,0.1-0.8,0.3l0,0c0,0-0.2,0.2-0.6,0.6L8.6,7.3
	l0.6-0.6l0,0l0,0l0,0c0.4-0.3,0.9-0.5,1.4-0.5c1.2,0,2.2,1.1,2.2,2.4C12.8,9.8,11.8,10.9,10.6,10.9z"/>
</svg>
