<?xml version="1.0" encoding="utf-8"?>
<!-- Generator: Adobe Illustrator 24.0.3, SVG Export Plug-In . SVG Version: 6.00 Build 0)  -->
<svg version="1.1" id="Ebene_1" xmlns="http://www.w3.org/2000/svg" xmlns:xlink="http://www.w3.org/1999/xlink" x="0px" y="0px"
	 viewBox="0 0 16 16" style="enable-background:new 0 0 16 16;" xml:space="preserve">
<style type="text/css">
	.st0{fill:#FFFFFF;}
	.st1{fill:#999999;}
	.st2{fill:#5599FF;}
	.st3{fill:#666666;}
	.st4{fill:#B9B9B9;}
</style>
<path class="st0" d="M1,1h14v14H1V1z"/>
<path class="st1" d="M1,1v14h14V1H1z M2,2h12v12H2V2z"/>
<path class="st2" d="M3,3h10v6H3V3z"/>
<path class="st0" d="M8,8H5l0.8-1l0.8-1l0.8,1L8,8z"/>
<path class="st0" d="M9,8H6.3L7,7.3l0.7-0.7l0.7,0.7L9,8z"/>
<path class="st0" d="M11,8H8l0.8-1l0.8-1l0.8,1L11,8z"/>
<ellipse class="st0" cx="10.5" cy="4.5" rx="0.5" ry="0.5"/>
<path class="st3" d="M3,10h10v1H3V10z"/>
<path class="st4" d="M3,12h10v1H3V12z"/>
</svg>
