<?xml version="1.0" encoding="utf-8"?>
<!-- Generator: Adobe Illustrator 25.1.0, SVG Export Plug-In . SVG Version: 6.00 Build 0)  -->
<svg version="1.1" id="Ebene_1" xmlns="http://www.w3.org/2000/svg" xmlns:xlink="http://www.w3.org/1999/xlink" x="0px" y="0px"
	 viewBox="0 0 125.5 60" style="enable-background:new 0 0 125.5 60;" xml:space="preserve">
<style type="text/css">
	.st0{fill:none;}
	.st1{fill:#003399;}
	.st2{fill:#FF893E;}
</style>
<g>
	<path class="st0" d="M46.3,20.3c2.4,0,3.3-5.2,3.5-6.8c0.2-1.6,0.9-6.9-1.5-6.9c-2.4,0-3.3,5.2-3.5,6.9
		C44.6,15.1,43.9,20.3,46.3,20.3z"/>
	<path class="st0" d="M63.8,44.8l-1.8,6h2.7l0.1-6c0.1-1.6,0.1-3.2,0.3-4.9h-0.1C64.7,41.5,64.3,43.2,63.8,44.8z"/>
	<path class="st0" d="M30.1,9.2C30.4,7,29.3,6,27.5,6.1l-0.9,6.4l0.4,0.1C28.7,12.5,29.9,10.9,30.1,9.2z"/>
	<path class="st0" d="M11.8,9.2c0.2-1.6-0.4-3.1-1.9-3.1L9.4,6.1l-0.9,5.9C10.2,12.2,11.5,11.2,11.8,9.2z"/>
	<path class="st0" d="M69.2,8.3c0.2-1.5-0.6-2.2-2-2.2h-0.6L66,10.6h0.3C67.7,10.6,69,10,69.2,8.3z"/>
	<path class="st0" d="M68.1,18.3c0.3-1.7-0.8-2.5-2.3-2.5h-0.5l-0.8,4.9h0.5C66.5,20.8,67.9,20,68.1,18.3z"/>
	<path class="st1" d="M45.3,26.8c6.5,0,10-7,10.9-13.3c0.9-6.3-0.6-13.3-7-13.3c-6.5,0-10,7-10.9,13.3
		C37.4,19.8,38.9,26.8,45.3,26.8z M44.8,13.5c0.2-1.6,1.1-6.9,3.5-6.9c2.4,0,1.7,5.2,1.5,6.9c-0.2,1.6-1.1,6.8-3.5,6.8
		C43.9,20.3,44.6,15.1,44.8,13.5z"/>
	<polygon class="st1" points="97.5,26.4 103.9,26.4 106.7,6.8 110.4,6.8 111.3,0.5 97.7,0.5 96.8,6.8 100.3,6.8 	"/>
	<path class="st1" d="M24.7,26.4l1-6.9c0.2-1.3,0.3-2.5,0.5-3.8l0.1-0.1l2,10.8h6.9l-3.2-10.8c2.7-1,4.2-3.6,4.6-6.4
		c1-6.8-2.7-8.6-8.3-8.6H22l-3.8,25.9H24.7z M27.5,6.1C29.3,6,30.4,7,30.1,9.2c-0.3,1.6-1.4,3.3-3.1,3.3l-0.4-0.1L27.5,6.1z"/>
	<path class="st1" d="M7.7,17.9c5.5,0.2,9.5-1.9,10.5-8.6c1-6.7-3.1-8.8-8.6-8.8H3.8L0.1,26.4h6.4L7.7,17.9z M9.4,6.1l0.5-0.1
		c1.5,0,2.1,1.5,1.9,3.1c-0.3,1.9-1.6,3-3.3,2.8L9.4,6.1z"/>
	<path class="st1" d="M74.4,19c0.5-3.5-0.9-5.6-4-5.9c2.7,0,4.8-2.3,5.2-5.2c0.8-5.6-3.3-7.4-7-7.4h-7.4l-3.8,25.9h8.5
		C71.6,26.4,73.9,22.2,74.4,19z M66.6,6.1h0.6c1.4,0,2.2,0.7,2,2.2c-0.2,1.6-1.5,2.2-2.9,2.2H66L66.6,6.1z M64.5,20.8l0.8-4.9h0.5
		c1.5,0,2.6,0.7,2.3,2.5c-0.2,1.7-1.6,2.5-3,2.5H64.5z"/>
	<path class="st1" d="M82.8,26.7c3.6,0,8.4-0.8,9.8-7.7c0.9-4.7-2-6.7-4.4-8.3c-1.9-1.3-3.1-2.1-2.7-3.7c0.3-1.8,1.5-2.2,2.4-2.2
		c0.6,0,0.8,0.2,0.9,0.3c0.4,0.6,0.1,2.1,0,2.6l-0.1,0.7h5.6l0.1-0.4c0.7-2.7,0.5-4.7-0.4-6.1C93,0.7,91.3,0,88.7,0
		c-5.2,0-8.3,2.5-9.3,7.4C79.3,8,79.3,8.5,79.3,9c0,3.5,2.5,5.3,4.5,6.7c1.7,1.2,2.8,2.1,2.8,3.3c0,0.1,0,0.3,0,0.4
		c-0.1,0.7-0.7,2.4-2.4,2.4c-0.7,0-1.2-0.2-1.4-0.5c-0.4-0.6-0.2-1.9,0.1-3.2l0.1-0.7h-5.8L77.1,18c-0.8,3-0.6,5.2,0.4,6.7
		C78.5,26,80.2,26.8,82.8,26.7z"/>
	<rect y="29.2" class="st2" width="125.5" height="2.5"/>
	<path class="st1" d="M125.4,39.7c-0.8-3.7-3.3-6.4-7.1-6.4c-6.9,0-10.1,7.1-11.1,13.5c-1,6.5,0.3,13.2,7.2,13.2
		c7.4,0,9.6-7.9,10.6-14.2l0.1-1.1h-8.9l-0.8,5.5h2.4c-0.2,1.5-1,3.7-2.7,3.7c-2.5,0-1.7-4.5-1.5-6.4c0.3-1.9,0.9-7.9,3.8-7.9
		c1.1,0,1.5,1.6,1.4,2.7L125.4,39.7z"/>
	<polygon class="st1" points="90.5,59.5 102.3,59.5 103.2,53.5 97.7,53.5 98.3,49.6 103.2,49.6 104.1,43.4 99.2,43.4 99.7,39.9 
		105.2,39.9 106.1,33.7 94.2,33.7 	"/>
	<path class="st1" d="M45.9,33.7l-2.8,8.9c-0.5,1.6-1,3.2-1.4,4.8h-0.1l0.2-13.7h-7.9l-6.5,25.8h6.8L36.3,49c0.4-1.9,0.6-3.7,1-5.7
		h0.1l-0.1,16.2h5.1L45.6,49c0.6-1.9,1.1-3.8,1.6-5.6h0.1l-1.8,16.2h6.6l1.4-25.8H45.9z"/>
	<path class="st1" d="M85.5,33.7l-3.3,10.6c-0.7,2.1-1.1,4.1-1.6,6.2h-0.1c0.1-2.1,0.2-4.1,0.2-6.2l0.1-10.6h-6.7l1.6,25.8h6.5
		l10.1-25.8H85.5z"/>
	<path class="st1" d="M62.3,33.7L53,59.5h6.6l1-3.3h4.2v3.3h6.6L70,33.7H62.3z M64.9,44.8l-0.1,6h-2.7l1.8-6
		c0.5-1.6,0.9-3.2,1.3-4.9h0.1C65.1,41.5,65,43.2,64.9,44.8z"/>
</g>
</svg>
